<svg width="14" height="14" viewBox="0 0 14 14" fill="none" xmlns="http://www.w3.org/2000/svg">
<path d="M6.97575 1.44721C8.7063 1.44721 8.91124 1.45398 9.59488 1.48656C10.0059 1.49182 10.4131 1.5707 10.7986 1.71979C11.0782 1.83248 11.3321 2.00511 11.544 2.22656C11.7558 2.44802 11.921 2.71339 12.0288 3.00559C12.1715 3.40853 12.247 3.83406 12.252 4.26366C12.2828 4.97818 12.2896 5.19237 12.2896 7.00108C12.2896 8.80979 12.2832 9.02398 12.252 9.7385C12.247 10.1681 12.1715 10.5936 12.0288 10.9966C11.921 11.2888 11.7558 11.5541 11.544 11.7756C11.3321 11.997 11.0782 12.1697 10.7986 12.2824C10.4131 12.4315 10.0059 12.5103 9.59488 12.5156C8.91155 12.5479 8.70661 12.5549 6.97575 12.5549C5.24488 12.5549 5.03994 12.5482 4.35661 12.5156C3.94557 12.5103 3.53843 12.4315 3.15291 12.2824C2.87332 12.1697 2.61942 11.997 2.40753 11.7756C2.19565 11.5541 2.03048 11.2888 1.92266 10.9966C1.78002 10.5936 1.70454 10.1681 1.69951 9.7385C1.66865 9.02398 1.66186 8.80979 1.66186 7.00108C1.66186 5.19237 1.66834 4.97818 1.69951 4.26366C1.70454 3.83406 1.78002 3.40853 1.92266 3.00559C2.03048 2.71339 2.19565 2.44802 2.40753 2.22656C2.61942 2.00511 2.87332 1.83248 3.15291 1.71979C3.53843 1.5707 3.94557 1.49182 4.35661 1.48656C5.04025 1.4543 5.24519 1.44721 6.97575 1.44721ZM6.97575 0.226562C5.21649 0.226562 4.99488 0.234304 4.30352 0.267208C3.76557 0.278391 3.23334 0.384847 2.72945 0.582046C2.29719 0.752261 1.90568 1.019 1.58223 1.36366C1.25216 1.70184 0.99673 2.11127 0.833769 2.56334C0.64509 3.08998 0.543234 3.64626 0.532534 4.2085C0.50167 4.93043 0.494263 5.16205 0.494263 7.00076C0.494263 8.83947 0.50167 9.07108 0.533152 9.79366C0.543852 10.3559 0.645707 10.9122 0.834386 11.4388C0.997167 11.8908 1.25239 12.3002 1.58223 12.6385C1.90586 12.9832 2.29759 13.25 2.73007 13.4201C3.23395 13.6173 3.76619 13.7238 4.30414 13.7349C4.9955 13.7672 5.21618 13.7756 6.97636 13.7756C8.73655 13.7756 8.95723 13.7679 9.64858 13.7349C10.1865 13.7238 10.7188 13.6173 11.2227 13.4201C11.6531 13.2457 12.044 12.9794 12.3703 12.6381C12.6966 12.2968 12.9512 11.8882 13.1177 11.4382C13.3064 10.9115 13.4083 10.3553 13.419 9.79301C13.4498 9.07108 13.4572 8.83947 13.4572 7.00076C13.4572 5.16205 13.4498 4.93043 13.4183 4.20785C13.4076 3.64561 13.3058 3.08934 13.1171 2.56269C12.9543 2.11068 12.6991 1.70126 12.3693 1.36301C12.0456 1.01828 11.6539 0.751533 11.2214 0.581401C10.7175 0.384201 10.1853 0.277746 9.64735 0.266563C8.95661 0.234304 8.735 0.226562 6.97575 0.226562Z" fill="white"/>
<path d="M6.97708 3.52344C6.31878 3.52344 5.67527 3.72746 5.12792 4.10971C4.58057 4.49195 4.15396 5.03525 3.90204 5.6709C3.65012 6.30655 3.58421 7.00601 3.71264 7.68081C3.84106 8.35561 4.15806 8.97546 4.62355 9.46197C5.08903 9.94847 5.6821 10.2798 6.32774 10.414C6.97339 10.5482 7.64262 10.4794 8.2508 10.2161C8.85899 9.95276 9.37881 9.50689 9.74454 8.93482C10.1103 8.36274 10.3055 7.69017 10.3055 7.00215C10.3055 6.07954 9.9548 5.19471 9.33061 4.54233C8.70641 3.88994 7.85982 3.52344 6.97708 3.52344ZM6.97708 9.26021C6.54977 9.26021 6.13206 9.12778 5.77677 8.87966C5.42148 8.63154 5.14456 8.27888 4.98104 7.86627C4.81752 7.45366 4.77473 6.99964 4.8581 6.56162C4.94146 6.1236 5.14723 5.72125 5.44938 5.40545C5.75153 5.08966 6.13649 4.8746 6.55559 4.78747C6.97468 4.70034 7.40909 4.74506 7.80386 4.91597C8.19864 5.08688 8.53607 5.3763 8.77346 5.74763C9.01086 6.11897 9.13757 6.55554 9.13757 7.00215C9.13757 7.60102 8.90995 8.17537 8.50478 8.59884C8.09961 9.02231 7.55008 9.26021 6.97708 9.26021Z" fill="white"/>
<path d="M10.4363 4.19807C10.8659 4.19807 11.2141 3.83412 11.2141 3.38517C11.2141 2.93621 10.8659 2.57227 10.4363 2.57227C10.0068 2.57227 9.65857 2.93621 9.65857 3.38517C9.65857 3.83412 10.0068 4.19807 10.4363 4.19807Z" fill="white"/>
</svg>
