<svg width="12" height="10" viewBox="0 0 12 10" fill="none" xmlns="http://www.w3.org/2000/svg">
<path d="M11.334 1.9831C10.9331 2.16933 10.5099 2.28573 10.0645 2.35557C10.5099 2.07622 10.8663 1.63392 11.0222 1.0985C10.599 1.35457 10.1313 1.5408 9.61902 1.6572C9.2181 1.2149 8.639 0.935547 8.01535 0.935547C6.8126 0.935547 5.83258 1.95982 5.83258 3.21689C5.83258 3.40312 5.85486 3.56608 5.8994 3.72903C4.09528 3.63591 2.46934 2.72803 1.37796 1.33129C1.19977 1.68048 1.08841 2.05294 1.08841 2.47196C1.08841 3.26345 1.46705 3.96182 2.06842 4.38084C1.71205 4.35756 1.37796 4.26445 1.06613 4.10149V4.12477C1.06613 5.24217 1.82342 6.17333 2.82571 6.38284C2.64753 6.4294 2.44707 6.45267 2.24661 6.45267C2.11297 6.45267 1.95706 6.4294 1.82342 6.40612C2.11297 7.314 2.9148 7.98909 3.87255 7.98909C3.11526 8.59434 2.17979 8.96681 1.15523 8.96681C0.977041 8.96681 0.798856 8.96681 0.642944 8.94353C1.62296 9.59534 2.75889 9.96781 4.00619 9.96781C8.03762 9.96781 10.2427 6.47595 10.2427 3.44968C10.2427 3.35656 10.2427 3.24017 10.2427 3.14705C10.6659 2.84443 11.0445 2.44868 11.334 1.9831Z" fill="white"/>
</svg>
